<svg width="198" height="129" viewBox="0 0 198 129" fill="none" xmlns="http://www.w3.org/2000/svg">
<path d="M81.0415 63.3381C362.023 149.243 44.1324 124.338 15.042 124.338C-29.9579 124.338 186.542 123.166 119.542 87.3381C101.585 77.7357 87.1462 69.226 75.718 61.6874C-73.4357 14.7671 34.6425 -9.48902 129.042 5.3381C134.023 6.47032 -34.0909 -10.7481 75.718 61.6874C77.4574 62.2346 79.2317 62.7848 81.0415 63.3381Z" fill="url(#paint0_angular_7_1605)"/>
<path d="M129.042 5.3381C127.881 5.06506 130.214 5.60874 129.042 5.3381ZM129.042 5.3381C33.5416 -9.66193 -75.9582 15.3382 81.0415 63.3381C362.023 149.243 44.1324 124.338 15.042 124.338C-29.9579 124.338 186.542 123.166 119.542 87.3381C-70.9582 -14.5308 134.542 6.58815 129.042 5.3381Z" stroke="black" stroke-width="2"/>
<defs>
<radialGradient id="paint0_angular_7_1605" cx="0" cy="0" r="1" gradientUnits="userSpaceOnUse" gradientTransform="translate(99.101 64.3465) rotate(-145.653) scale(82.4321 126.356)">
<stop stop-color="#082FF8"/>
<stop offset="1" stop-color="#082FF8" stop-opacity="0"/>
</radialGradient>
</defs>
</svg>
